<?xml version="1.0" encoding="UTF-8"?>
<svg id="_レイヤー_1" xmlns="http://www.w3.org/2000/svg" version="1.1" viewBox="0 0 239.04 799.53">
  <!-- Generator: Adobe Illustrator 29.6.1, SVG Export Plug-In . SVG Version: 2.1.1 Build 9)  -->
  <defs>
    <style>
      .st0 {
        fill: #231815;
        stroke: #fff;
        stroke-miterlimit: 10;
      }

      .st1 {
        fill: #fff;
        font-family: TeluguMN, 'Telugu MN';
        font-size: 205.9px;
      }

      .st1, .st2, .st3 {
        isolation: isolate;
      }

      .st3, .st4 {
        display: none;
      }
    </style>
  </defs>
  <path class="st4" d="M13.65,768.9l-11.71-.03c-.86-.01-1.56-758.46-1.56-758.46C.38,6.61,2.6,3.16,6.06,1.59l.69-.31c4.72-2.15,10.24-1.55,14.38,1.57l179.12,134.98c.39.29.62.76.62,1.25v10.83c0,1.28-1.45,2.01-2.48,1.26L17.69,19.13c-1.03-.75-2.48-.02-2.48,1.26,0,0-.7,748.5-1.56,748.5h0Z"/>
  <g class="st3">
    <g class="st2">
      <g class="st2">
        <text class="st1" transform="translate(99.67 140.19) rotate(90)"><tspan x="0" y="0">TOP</tspan></text>
      </g>
    </g>
  </g>
  <path class="st0" d="M13.65,391.36H.38C-.48,391.36.38,10.41.38,10.41.38,6.61,2.6,3.16,6.06,1.59l.69-.31c4.72-2.15,10.24-1.55,14.38,1.57l179.12,134.98c.39.29.62.76.62,1.25v10.83c0,1.28-1.45,2.01-2.48,1.26L17.69,19.13c-1.03-.75-2.48-.02-2.48,1.26,0,0-.7,370.97-1.56,370.97Z"/>
  <g class="st2">
    <g class="st2">
      <g class="st2">
        <path class="st0" d="M202.84,497.29h-8.65v-48.26h-124.67v-22.42h124.67v-48.26h8.65v118.94h0Z"/>
        <path class="st0" d="M66.41,586.76c0-10.32,1.84-19.96,5.53-28.9,3.69-8.95,8.73-16.72,15.13-23.33,6.4-6.6,13.87-11.8,22.42-15.58,8.54-3.79,17.68-5.68,27.4-5.68,6.37,0,12.5.85,18.4,2.56s11.39,4.14,16.49,7.29c5.09,3.15,9.74,6.95,13.92,11.41,4.19,4.46,7.77,9.4,10.76,14.83,2.98,5.43,5.29,11.31,6.94,17.64,1.64,6.33,2.46,12.92,2.46,19.76s-.82,13.5-2.46,19.81c-1.64,6.3-3.96,12.18-6.94,17.64s-6.57,10.41-10.76,14.83c-4.19,4.42-8.83,8.23-13.92,11.41s-10.59,5.63-16.49,7.34c-5.9,1.71-12.03,2.56-18.4,2.56s-12.73-.85-18.7-2.56-11.56-4.16-16.79-7.34c-5.23-3.18-9.99-6.99-14.28-11.41s-7.98-9.37-11.06-14.83c-3.08-5.46-5.46-11.35-7.14-17.64-1.67-6.3-2.51-12.9-2.51-19.81h0ZM73.05,586.76c0,7.64,1.59,14.39,4.78,20.26,3.18,5.86,7.62,10.81,13.32,14.83s12.43,7.05,20.21,9.1c7.77,2.04,16.29,3.07,25.54,3.07s17.59-1.02,25.24-3.07c7.64-2.04,14.23-5.08,19.76-9.1,5.53-4.02,9.82-8.96,12.87-14.83,3.05-5.87,4.57-12.62,4.57-20.26s-1.53-14.6-4.57-20.46c-3.05-5.87-7.34-10.79-12.87-14.78-5.53-3.99-12.12-6.99-19.76-9s-16.05-3.02-25.24-3.02-17.76,1.01-25.54,3.02-14.51,5.01-20.21,9-10.14,8.91-13.32,14.78c-3.18,5.86-4.78,12.68-4.78,20.46Z"/>
        <path class="st0" d="M202.84,690.52v42.23c0,6.97-.84,13.5-2.51,19.6-1.68,6.1-4.14,11.41-7.39,15.94-3.25,4.52-7.24,8.08-11.96,10.66-4.73,2.58-10.14,3.87-16.24,3.87s-11.29-1.26-15.79-3.77c-4.49-2.51-8.21-5.83-11.16-9.95s-5.14-8.8-6.58-14.03c-1.44-5.23-2.16-10.56-2.16-15.99,0-2.35.05-4.79.15-7.34.1-2.55.25-4.99.45-7.34.2-2.35.44-4.52.7-6.53.27-2.01.54-3.65.8-4.93h-61.63v-22.42h133.32ZM138.7,712.94c-.87,2.55-1.59,5.26-2.16,8.14s-.85,5.83-.85,8.85c0,4.83.72,9.05,2.16,12.67s3.42,6.64,5.93,9.05,5.46,4.21,8.85,5.38c3.38,1.17,6.99,1.76,10.81,1.76,4.49,0,8.55-.77,12.17-2.31s6.72-3.67,9.3-6.38,4.57-5.9,5.98-9.55c1.41-3.65,2.11-7.56,2.11-11.71v-15.88h-54.29v-.02Z"/>
      </g>
    </g>
  </g>
  <rect class="st0" y="422.58" width="13.85" height="49.7"/>
  <rect class="st0" y="496.9" width="13.85" height="49.7"/>
  <rect class="st0" y="581.21" width="13.85" height="49.7"/>
  <rect class="st0" y="665.52" width="13.85" height="49.7"/>
  <rect class="st0" y="749.83" width="13.85" height="49.7"/>
</svg>