<?xml version="1.0" encoding="UTF-8"?>
<svg xmlns="http://www.w3.org/2000/svg" xmlns:xlink="http://www.w3.org/1999/xlink" version="1.1" viewBox="0 0 280.89 80.51">
  <!-- Generator: Adobe Illustrator 29.6.1, SVG Export Plug-In . SVG Version: 2.1.1 Build 9)  -->
  <defs>
    <style>
      .st0 {
        fill: none;
      }

      .st1, .st2, .st3 {
        fill: #3f3f3f;
      }

      .st1, .st3, .st4, .st5 {
        fill-rule: evenodd;
      }

      .st1, .st4 {
        stroke: #040000;
        stroke-linecap: round;
        stroke-linejoin: round;
        stroke-width: .29px;
      }

      .st6 {
        fill: #221f20;
      }

      .st7 {
        fill: #231815;
      }

      .st8 {
        clip-path: url(#clippath-11);
      }

      .st9 {
        clip-path: url(#clippath-10);
      }

      .st10 {
        clip-path: url(#clippath-1);
      }

      .st11 {
        clip-path: url(#clippath-3);
      }

      .st12 {
        clip-path: url(#clippath-4);
      }

      .st13 {
        clip-path: url(#clippath-2);
      }

      .st14 {
        clip-path: url(#clippath-7);
      }

      .st15 {
        clip-path: url(#clippath-6);
      }

      .st16 {
        clip-path: url(#clippath-9);
      }

      .st17 {
        clip-path: url(#clippath-8);
      }

      .st18 {
        clip-path: url(#clippath-5);
      }

      .st4, .st5 {
        fill: #040000;
      }

      .st19 {
        display: none;
      }

      .st20 {
        clip-path: url(#clippath);
      }

      .st21 {
        fill: #1d2958;
      }
    </style>
    <clipPath id="clippath">
      <polygon class="st0" points="103.38 56.91 76.55 55.61 76.55 33.22 100.53 35.22 103.38 56.91"/>
    </clipPath>
    <clipPath id="clippath-1">
      <polygon class="st0" points="67.87 .59 98.54 0 103.38 59.36 63.43 57.83 67.87 .59"/>
    </clipPath>
    <clipPath id="clippath-2">
      <rect class="st0" x="11.83" y="4.19" width="52.74" height="64.03"/>
    </clipPath>
    <clipPath id="clippath-3">
      <polygon class="st0" points="103.38 56.91 76.55 55.61 76.55 33.22 100.53 35.22 103.38 56.91"/>
    </clipPath>
    <clipPath id="clippath-4">
      <polygon class="st0" points="67.87 .59 98.54 0 103.38 59.36 63.43 57.83 67.87 .59"/>
    </clipPath>
    <clipPath id="clippath-5">
      <rect class="st0" x="11.83" y="4.19" width="52.74" height="64.03"/>
    </clipPath>
    <clipPath id="clippath-6">
      <polygon class="st0" points="103.38 56.91 76.55 55.61 76.55 33.22 100.53 35.22 103.38 56.91"/>
    </clipPath>
    <clipPath id="clippath-7">
      <polygon class="st0" points="67.87 .59 98.54 0 103.38 59.36 63.43 57.83 67.87 .59"/>
    </clipPath>
    <clipPath id="clippath-8">
      <rect class="st0" x="11.83" y="4.19" width="52.74" height="64.03"/>
    </clipPath>
    <clipPath id="clippath-9">
      <polygon class="st0" points="103.38 56.91 76.55 55.61 76.55 33.22 100.53 35.22 103.38 56.91"/>
    </clipPath>
    <clipPath id="clippath-10">
      <polygon class="st0" points="67.87 .59 98.54 0 103.38 59.36 63.43 57.83 67.87 .59"/>
    </clipPath>
    <clipPath id="clippath-11">
      <rect class="st0" x="11.83" y="4.19" width="52.74" height="64.03"/>
    </clipPath>
  </defs>
  <g id="_レイヤー_1" data-name="レイヤー_1" class="st19">
    <path class="st7" d="M158,57.87l7.07-27.96h-2.93s.33-1.59.33-1.59l8.72-1.1s-1.13,2.84-2.04,5.99c-.8,2.78-1.1,6.15-1.1,6.15-.05.39.28.41.5.06,2.65-4.28,3.83-6.38,5.5-8.11.81-.84,2.25-2.1,3.84-2.9,1.78-.9,3.72-1.09,4.58-.55,1.15.73,1.22,1.98,1.22,1.98l-1.34,4.7c-1.14-2.45-3.62-2.46-5.01-2.08-1.67.45-3.41,2.3-5.14,4.57-1.32,1.74-2.75,3.91-3.79,6.03-.77,1.58-1.5,2.33-2.22,4.11,0,0-1.08,2.96-1.4,4.24-1.44,5.75-1.26,5.5-1.22,6.46h-5.56Z"/>
    <path class="st7" d="M194.02,16.68c.83,0,1.54.29,2.11.87s.86,1.28.86,2.1-.29,1.51-.86,2.07c-.57.57-1.28.85-2.11.85s-1.51-.28-2.09-.85c-.57-.57-.86-1.26-.86-2.07s.29-1.54.86-2.11,1.27-.86,2.09-.86Z"/>
    <rect class="st21" x="141.07" y="38.82" width="12.64" height="3.78"/>
    <rect class="st21" x="138.23" y="37.65" width="18.27" height="1.52"/>
    <path class="st7" d="M183.22,57.87l7.07-27.96h-2.93s.33-1.59.33-1.59l8.72-1.1s-1.13,2.84-2.04,5.99c-.8,2.78-4.46,17.98-4.7,19.23-.61,3.22-.67,4.47-.89,5.44h-5.56Z"/>
    <g id="whole_note1">
      <path class="st5" d="M106.65,53.32c-3.82-4.08-2.66-12.98,2.58-17.9,6.25-5.87,14.45-5.27,18.28-1.2,4.42,4.72,3.1,12.73-1.89,17.43-5.49,5.16-14.19,6.75-18.96,1.67ZM108.52,52.05c2.51,2.45,10.26-1.19,13.19-4.06,2.96-2.78,7.47-9.57,4.59-12.64-2.24-2.39-9.3.39-13.26,4.12-3.83,3.58-6.59,10.5-4.52,12.58h0Z"/>
    </g>
    <g id="_レイヤー-1" data-name="レイヤー-1">
      <path class="st6" d="M127.55,54.22v-19.19c0-.25.65-.81,1.45-.81s1.45.43,1.45.68v20.87c0,1.3-2.91,1.26-2.91.03"/>
    </g>
    <g id="eighth_rest1">
      <path class="st5" d="M9.39,43.12c-2.58-.73-5.91-3.29-7.47-6.04s-2.6-7.41-1.42-12.16c1.12-4.5,4.91-7.72,9.08-7.72,4.9,0,7.12,2.98,7.19,7.09.06,3.87-4.33,8.61-10.22,5.78-.12.87.13,3.48,1.07,5.46,1.34,2.84,4.46,4.98,7.57,5.06,3.04.09,8.27-1.41,12.59-5.61.4-.38,1.01-.44,1.46-.12.46.31.63.9.41,1.41-15.07,32.52-21.07,44.24-21.07,44.24H.71s15.23-18.26,24.9-40.71c-2.27,1.72-7.07,4.36-11.14,4.2-2.08-.08-3.71-.49-5.07-.87Z"/>
    </g>
    <g class="st20">
      <path class="st4" d="M78.82,46.14l1.37-2.65s1.41-6.73,5.61-6.18c4.7.28,2.43,6.33,2.22,8.74-.82,5.55,1.71,7.21,4.92,8.84,2.05.94,5.2.55,7.06-1.34l-.2-2.27s-2.43,4.35-5.68,2.47c-2.81-1.81-2.17-6.04-1.99-11.69.22-3.21-.86-6.1-6.09-6.34-4.11-.21-7.16,8.12-6.61,7.57"/>
      <path class="st5" d="M100.68,49.3c1.24,1.14,1.19,2.41.17,3.72s-2.62,2.04-3.88,1c-1.34-1.1-1.1-2.84-.08-4.15,1.03-1.3,2.82-1.47,3.79-.57Z"/>
    </g>
    <g class="st10">
      <path class="st4" d="M98.3,5.29c-.09,2.2.9-5.75-5.24-4.89-7.95,2.07-11.67,13.17-14.05,22.83-2.33,12.77-3.24,16.11-6.99,27.44-2.54,5.8-4.99.26-4.99.26l-1.11,2.97s2.35,2.93,6.32.66c5.92-1.78,10.23-19.14,11.58-26.3,1.35-7.15,4.96-25.3,9.64-25.95,2.22-.49,2.35,3.1,2.35,3.1l1.51-.18"/>
      <path class="st5" d="M95.97,2.49c1.37-.07,2.42,1.32,2.35,3.1s-1.24,3.29-2.61,3.37-2.42-1.32-2.35-3.1c.07-1.79,1.24-3.29,2.61-3.37Z"/>
      <path class="st5" d="M95.97,2.49c1.37-.07,2.42,1.32,2.35,3.1s-1.24,3.29-2.61,3.37-2.42-1.32-2.35-3.1,1.24-3.29,2.61-3.37ZM95.94,3.08c-1.12.06-2.06,1.3-2.12,2.76-.06,1.46.79,2.6,1.9,2.54s2.06-1.3,2.12-2.76-.79-2.6-1.9-2.54Z"/>
      <path class="st5" d="M67.54,48.38c1.37-.07,2.42,1.3,2.35,3.07-.07,1.77-1.24,3.26-2.61,3.33s-2.42-1.3-2.35-3.07c.07-1.77,1.24-3.26,2.61-3.33Z"/>
      <path class="st5" d="M67.54,48.38c1.37-.07,2.42,1.3,2.35,3.07s-1.24,3.26-2.61,3.33-2.42-1.3-2.35-3.07c.07-1.76,1.24-3.26,2.61-3.33h0ZM67.51,48.96c-1.11.06-2.06,1.28-2.11,2.72s.79,2.57,1.91,2.51,2.06-1.28,2.11-2.72-.79-2.57-1.91-2.51h0Z"/>
    </g>
    <g id="_レイヤー-11" data-name="レイヤー-1">
      <path class="st6" d="M84.04,35.98l9.92-9.84c.46-.44,1.25.02,1.77.71.37.49.85,1.53.48,2.08l-8.63,8.02c-.53.52-4.47.16-3.94-.36"/>
    </g>
    <path class="st7" d="M196.96,57.87l7.07-27.96h-2.93s.33-1.59.33-1.59l8.72-1.1s-1.13,2.84-2.04,5.99c-.8,2.78-1.1,6.15-1.1,6.15-.05.39.28.41.5.06,2.65-4.28,3.83-6.38,5.5-8.11.81-.84,2.25-2.1,3.84-2.9,1.78-.9,3.72-1.09,4.58-.55,1.15.73,1.22,1.98,1.22,1.98l-1.34,4.7c-1.14-2.45-3.62-2.46-5.01-2.08-1.67.45-3.41,2.3-5.14,4.57-1.32,1.74-2.75,3.91-3.79,6.03-.77,1.58-1.5,2.33-2.22,4.11,0,0-1.08,2.96-1.4,4.24-1.44,5.75-1.26,5.5-1.22,6.46h-5.56Z"/>
    <path class="st7" d="M232.98,16.68c.83,0,1.54.29,2.11.87s.86,1.28.86,2.1-.29,1.51-.86,2.07c-.57.57-1.28.85-2.11.85s-1.51-.28-2.09-.85c-.57-.57-.86-1.26-.86-2.07s.29-1.54.86-2.11,1.27-.86,2.09-.86Z"/>
    <path class="st7" d="M222.18,57.87l7.07-27.96h-2.93s.33-1.59.33-1.59l8.72-1.1s-1.13,2.84-2.04,5.99c-.8,2.78-4.46,17.98-4.7,19.23-.61,3.22-.67,4.47-.89,5.44h-5.56Z"/>
    <path class="st7" d="M235.92,57.87l7.07-27.96h-2.93s.33-1.59.33-1.59l8.72-1.1s-1.13,2.84-2.04,5.99c-.8,2.78-1.1,6.15-1.1,6.15-.05.39.28.41.5.06,2.65-4.28,3.83-6.38,5.5-8.11.81-.84,2.25-2.1,3.84-2.9,1.78-.9,3.72-1.09,4.58-.55,1.15.73,1.22,1.98,1.22,1.98l-1.34,4.7c-1.14-2.45-3.62-2.46-5.01-2.08-1.67.45-3.41,2.3-5.14,4.57-1.32,1.74-2.75,3.91-3.79,6.03-.77,1.58-1.5,2.33-2.22,4.11,0,0-1.08,2.96-1.4,4.24-1.44,5.75-1.26,5.5-1.22,6.46h-5.56Z"/>
    <path class="st7" d="M272.07,16.68c.83,0,1.54.29,2.11.87s.86,1.28.86,2.1-.29,1.51-.86,2.07c-.57.57-1.28.85-2.11.85s-1.51-.28-2.09-.85c-.57-.57-.86-1.26-.86-2.07s.29-1.54.86-2.11,1.27-.86,2.09-.86Z"/>
    <path class="st7" d="M261.28,57.87l7.07-27.96h-2.93s.33-1.59.33-1.59l8.72-1.1s-1.13,2.84-2.04,5.99c-.8,2.78-4.46,17.98-4.7,19.23-.61,3.22-.67,4.47-.89,5.44h-5.56Z"/>
    <g id="_レイヤー-12" data-name="レイヤー-1">
      <path class="st6" d="M132.9,54.22v-19.19c0-.25.36-.81.79-.81s.79.43.79.68v20.87c0,1.3-1.59,1.26-1.59.03"/>
    </g>
    <g class="st13">
      <path class="st5" d="M61.62,54.66l.21-1.58s-1.29-.05-2.37.08c.73-5.57,3.81-18.15,5.11-23.97-3.67.12-3.54.09-6.24.17.07,4.24-6.05,17.74-9.47,20.32-1.11.58-3.2,3.27-5.92,1.48-3.52-2.32-1.31-7.1-.69-9.3,1.41-4.97,4.01-10.35,1.99-12.37-.93-.93-2.37-1.5-4.24-.75-2.17,1.63-5.38,4.57-5.02,6.5.56.1.42-.58,1.88-1.65.79-.58,1.79.26,1.59,1.36-.83,4.63-4.18,12.52-2.38,16.82.12.28.58,1.32,1.46,2.08.67.58,1.56,1.34,5,1.37,6.72.06,11.15-10.19,12.5-10.21-.07,2.5-.87,7.82-1.73,10.6,2.59-.27,8.31-.95,8.31-.95Z"/>
    </g>
    <path class="st7" d="M278.87,15.63c-1.15-1.28-21.14-12.25-56.67-11.99-35.03.25-51.29,5.52-57.03,10.47-.9.78-1.26,1.5-1.73,1.05s-.25-.65.03-1.1c3.01-4.8,29.18-12.4,58.74-12.4,26.48,0,48.61,8.11,54.93,11.65,1.99,1.12,4.15,2.91,3.69,3.28-.5.4-1.74-.73-1.95-.97Z"/>
    <path class="st7" d="M158,57.87l7.07-27.96h-2.93s.33-1.59.33-1.59l8.72-1.1s-1.13,2.84-2.04,5.99c-.8,2.78-1.1,6.15-1.1,6.15-.05.39.28.41.5.06,2.65-4.28,3.83-6.38,5.5-8.11.81-.84,2.25-2.1,3.84-2.9,1.78-.9,3.72-1.09,4.58-.55,1.15.73,1.22,1.98,1.22,1.98l-1.34,4.7c-1.14-2.45-3.62-2.46-5.01-2.08-1.67.45-3.41,2.3-5.14,4.57-1.32,1.74-2.75,3.91-3.79,6.03-.77,1.58-1.5,2.33-2.22,4.11,0,0-1.08,2.96-1.4,4.24-1.44,5.75-1.26,5.5-1.22,6.46h-5.56Z"/>
    <path class="st7" d="M194.02,16.68c.83,0,1.54.29,2.11.87s.86,1.28.86,2.1-.29,1.51-.86,2.07c-.57.57-1.28.85-2.11.85s-1.51-.28-2.09-.85c-.57-.57-.86-1.26-.86-2.07s.29-1.54.86-2.11,1.27-.86,2.09-.86Z"/>
    <rect class="st21" x="141.07" y="38.82" width="12.64" height="3.78"/>
    <rect class="st21" x="138.23" y="37.65" width="18.27" height="1.52"/>
    <path class="st7" d="M183.22,57.87l7.07-27.96h-2.93s.33-1.59.33-1.59l8.72-1.1s-1.13,2.84-2.04,5.99c-.8,2.78-4.46,17.98-4.7,19.23-.61,3.22-.67,4.47-.89,5.44h-5.56Z"/>
    <g id="whole_note11" data-name="whole_note1">
      <path class="st5" d="M106.65,53.32c-3.82-4.08-2.66-12.98,2.58-17.9,6.25-5.87,14.45-5.27,18.28-1.2,4.42,4.72,3.1,12.73-1.89,17.43-5.49,5.16-14.19,6.75-18.96,1.67ZM108.52,52.05c2.51,2.45,10.26-1.19,13.19-4.06,2.96-2.78,7.47-9.57,4.59-12.64-2.24-2.39-9.3.39-13.26,4.12-3.83,3.58-6.59,10.5-4.52,12.58h0Z"/>
    </g>
    <g id="_レイヤー-13" data-name="レイヤー-1">
      <path class="st6" d="M127.55,54.22v-19.19c0-.25.65-.81,1.45-.81s1.45.43,1.45.68v20.87c0,1.3-2.91,1.26-2.91.03"/>
    </g>
    <g id="eighth_rest11" data-name="eighth_rest1">
      <path class="st5" d="M9.39,43.12c-2.58-.73-5.91-3.29-7.47-6.04s-2.6-7.41-1.42-12.16c1.12-4.5,4.91-7.72,9.08-7.72,4.9,0,7.12,2.98,7.19,7.09.06,3.87-4.33,8.61-10.22,5.78-.12.87.13,3.48,1.07,5.46,1.34,2.84,4.46,4.98,7.57,5.06,3.04.09,8.27-1.41,12.59-5.61.4-.38,1.01-.44,1.46-.12.46.31.63.9.41,1.41-15.07,32.52-21.07,44.24-21.07,44.24H.71s15.23-18.26,24.9-40.71c-2.27,1.72-7.07,4.36-11.14,4.2-2.08-.08-3.71-.49-5.07-.87Z"/>
    </g>
    <g class="st11">
      <path class="st4" d="M78.82,46.14l1.37-2.65s1.41-6.73,5.61-6.18c4.7.28,2.43,6.33,2.22,8.74-.82,5.55,1.71,7.21,4.92,8.84,2.05.94,5.2.55,7.06-1.34l-.2-2.27s-2.43,4.35-5.68,2.47c-2.81-1.81-2.17-6.04-1.99-11.69.22-3.21-.86-6.1-6.09-6.34-4.11-.21-7.16,8.12-6.61,7.57"/>
      <path class="st5" d="M100.68,49.3c1.24,1.14,1.19,2.41.17,3.72s-2.62,2.04-3.88,1c-1.34-1.1-1.1-2.84-.08-4.15,1.03-1.3,2.82-1.47,3.79-.57Z"/>
    </g>
    <g class="st12">
      <path class="st4" d="M98.3,5.29c-.09,2.2.9-5.75-5.24-4.89-7.95,2.07-11.67,13.17-14.05,22.83-2.33,12.77-3.24,16.11-6.99,27.44-2.54,5.8-4.99.26-4.99.26l-1.11,2.97s2.35,2.93,6.32.66c5.92-1.78,10.23-19.14,11.58-26.3,1.35-7.15,4.96-25.3,9.64-25.95,2.22-.49,2.35,3.1,2.35,3.1l1.51-.18"/>
      <path class="st5" d="M95.97,2.49c1.37-.07,2.42,1.32,2.35,3.1s-1.24,3.29-2.61,3.37-2.42-1.32-2.35-3.1c.07-1.79,1.24-3.29,2.61-3.37Z"/>
      <path class="st5" d="M95.97,2.49c1.37-.07,2.42,1.32,2.35,3.1s-1.24,3.29-2.61,3.37-2.42-1.32-2.35-3.1,1.24-3.29,2.61-3.37ZM95.94,3.08c-1.12.06-2.06,1.3-2.12,2.76-.06,1.46.79,2.6,1.9,2.54s2.06-1.3,2.12-2.76-.79-2.6-1.9-2.54Z"/>
      <path class="st5" d="M67.54,48.38c1.37-.07,2.42,1.3,2.35,3.07-.07,1.77-1.24,3.26-2.61,3.33s-2.42-1.3-2.35-3.07c.07-1.77,1.24-3.26,2.61-3.33Z"/>
      <path class="st5" d="M67.54,48.38c1.37-.07,2.42,1.3,2.35,3.07s-1.24,3.26-2.61,3.33-2.42-1.3-2.35-3.07c.07-1.76,1.24-3.26,2.61-3.33h0ZM67.51,48.96c-1.11.06-2.06,1.28-2.11,2.72s.79,2.57,1.91,2.51,2.06-1.28,2.11-2.72-.79-2.57-1.91-2.51h0Z"/>
    </g>
    <g id="_レイヤー-14" data-name="レイヤー-1">
      <path class="st6" d="M84.04,35.98l9.92-9.84c.46-.44,1.25.02,1.77.71.37.49.85,1.53.48,2.08l-8.63,8.02c-.53.52-4.47.16-3.94-.36"/>
    </g>
    <path class="st7" d="M196.96,57.87l7.07-27.96h-2.93s.33-1.59.33-1.59l8.72-1.1s-1.13,2.84-2.04,5.99c-.8,2.78-1.1,6.15-1.1,6.15-.05.39.28.41.5.06,2.65-4.28,3.83-6.38,5.5-8.11.81-.84,2.25-2.1,3.84-2.9,1.78-.9,3.72-1.09,4.58-.55,1.15.73,1.22,1.98,1.22,1.98l-1.34,4.7c-1.14-2.45-3.62-2.46-5.01-2.08-1.67.45-3.41,2.3-5.14,4.57-1.32,1.74-2.75,3.91-3.79,6.03-.77,1.58-1.5,2.33-2.22,4.11,0,0-1.08,2.96-1.4,4.24-1.44,5.75-1.26,5.5-1.22,6.46h-5.56Z"/>
    <path class="st7" d="M232.98,16.68c.83,0,1.54.29,2.11.87s.86,1.28.86,2.1-.29,1.51-.86,2.07c-.57.57-1.28.85-2.11.85s-1.51-.28-2.09-.85c-.57-.57-.86-1.26-.86-2.07s.29-1.54.86-2.11,1.27-.86,2.09-.86Z"/>
    <path class="st7" d="M222.18,57.87l7.07-27.96h-2.93s.33-1.59.33-1.59l8.72-1.1s-1.13,2.84-2.04,5.99c-.8,2.78-4.46,17.98-4.7,19.23-.61,3.22-.67,4.47-.89,5.44h-5.56Z"/>
    <path class="st7" d="M235.92,57.87l7.07-27.96h-2.93s.33-1.59.33-1.59l8.72-1.1s-1.13,2.84-2.04,5.99c-.8,2.78-1.1,6.15-1.1,6.15-.05.39.28.41.5.06,2.65-4.28,3.83-6.38,5.5-8.11.81-.84,2.25-2.1,3.84-2.9,1.78-.9,3.72-1.09,4.58-.55,1.15.73,1.22,1.98,1.22,1.98l-1.34,4.7c-1.14-2.45-3.62-2.46-5.01-2.08-1.67.45-3.41,2.3-5.14,4.57-1.32,1.74-2.75,3.91-3.79,6.03-.77,1.58-1.5,2.33-2.22,4.11,0,0-1.08,2.96-1.4,4.24-1.44,5.75-1.26,5.5-1.22,6.46h-5.56Z"/>
    <path class="st7" d="M272.07,16.68c.83,0,1.54.29,2.11.87s.86,1.28.86,2.1-.29,1.51-.86,2.07c-.57.57-1.28.85-2.11.85s-1.51-.28-2.09-.85c-.57-.57-.86-1.26-.86-2.07s.29-1.54.86-2.11,1.27-.86,2.09-.86Z"/>
    <path class="st7" d="M261.28,57.87l7.07-27.96h-2.93s.33-1.59.33-1.59l8.72-1.1s-1.13,2.84-2.04,5.99c-.8,2.78-4.46,17.98-4.7,19.23-.61,3.22-.67,4.47-.89,5.44h-5.56Z"/>
    <g id="_レイヤー-15" data-name="レイヤー-1">
      <path class="st6" d="M132.9,54.22v-19.19c0-.25.36-.81.79-.81s.79.43.79.68v20.87c0,1.3-1.59,1.26-1.59.03"/>
    </g>
    <g class="st18">
      <path class="st5" d="M61.62,54.66l.21-1.58s-1.29-.05-2.37.08c.73-5.57,3.81-18.15,5.11-23.97-3.67.12-3.54.09-6.24.17.07,4.24-6.05,17.74-9.47,20.32-1.11.58-3.2,3.27-5.92,1.48-3.52-2.32-1.31-7.1-.69-9.3,1.41-4.97,4.01-10.35,1.99-12.37-.93-.93-2.37-1.5-4.24-.75-2.17,1.63-5.38,4.57-5.02,6.5.56.1.42-.58,1.88-1.65.79-.58,1.79.26,1.59,1.36-.83,4.63-4.18,12.52-2.38,16.82.12.28.58,1.32,1.46,2.08.67.58,1.56,1.34,5,1.37,6.72.06,11.15-10.19,12.5-10.21-.07,2.5-.87,7.82-1.73,10.6,2.59-.27,8.31-.95,8.31-.95Z"/>
    </g>
    <path class="st7" d="M278.87,15.63c-1.15-1.28-21.14-12.25-56.67-11.99-35.03.25-51.29,5.52-57.03,10.47-.9.78-1.26,1.5-1.73,1.05s-.25-.65.03-1.1c3.01-4.8,29.18-12.4,58.74-12.4,26.48,0,48.61,8.11,54.93,11.65,1.99,1.12,4.15,2.91,3.69,3.28-.5.4-1.74-.73-1.95-.97Z"/>
    <path class="st7" d="M158,57.87l7.07-27.96h-2.93s.33-1.59.33-1.59l8.72-1.1s-1.13,2.84-2.04,5.99c-.8,2.78-1.1,6.15-1.1,6.15-.05.39.28.41.5.06,2.65-4.28,3.83-6.38,5.5-8.11.81-.84,2.25-2.1,3.84-2.9,1.78-.9,3.72-1.09,4.58-.55,1.15.73,1.22,1.98,1.22,1.98l-1.34,4.7c-1.14-2.45-3.62-2.46-5.01-2.08-1.67.45-3.41,2.3-5.14,4.57-1.32,1.74-2.75,3.91-3.79,6.03-.77,1.58-1.5,2.33-2.22,4.11,0,0-1.08,2.96-1.4,4.24-1.44,5.75-1.26,5.5-1.22,6.46h-5.56Z"/>
    <path class="st7" d="M194.02,16.68c.83,0,1.54.29,2.11.87s.86,1.28.86,2.1-.29,1.51-.86,2.07c-.57.57-1.28.85-2.11.85s-1.51-.28-2.09-.85c-.57-.57-.86-1.26-.86-2.07s.29-1.54.86-2.11,1.27-.86,2.09-.86Z"/>
    <rect class="st21" x="141.07" y="38.82" width="12.64" height="3.78"/>
    <rect class="st21" x="138.23" y="37.65" width="18.27" height="1.52"/>
    <path class="st7" d="M183.22,57.87l7.07-27.96h-2.93s.33-1.59.33-1.59l8.72-1.1s-1.13,2.84-2.04,5.99c-.8,2.78-4.46,17.98-4.7,19.23-.61,3.22-.67,4.47-.89,5.44h-5.56Z"/>
    <g id="whole_note12" data-name="whole_note1">
      <path class="st5" d="M106.65,53.32c-3.82-4.08-2.66-12.98,2.58-17.9,6.25-5.87,14.45-5.27,18.28-1.2,4.42,4.72,3.1,12.73-1.89,17.43-5.49,5.16-14.19,6.75-18.96,1.67ZM108.52,52.05c2.51,2.45,10.26-1.19,13.19-4.06,2.96-2.78,7.47-9.57,4.59-12.64-2.24-2.39-9.3.39-13.26,4.12-3.83,3.58-6.59,10.5-4.52,12.58h0Z"/>
    </g>
    <g id="_レイヤー-16" data-name="レイヤー-1">
      <path class="st6" d="M127.55,54.22v-19.19c0-.25.65-.81,1.45-.81s1.45.43,1.45.68v20.87c0,1.3-2.91,1.26-2.91.03"/>
    </g>
    <g id="eighth_rest12" data-name="eighth_rest1">
      <path class="st5" d="M9.39,43.12c-2.58-.73-5.91-3.29-7.47-6.04s-2.6-7.41-1.42-12.16c1.12-4.5,4.91-7.72,9.08-7.72,4.9,0,7.12,2.98,7.19,7.09.06,3.87-4.33,8.61-10.22,5.78-.12.87.13,3.48,1.07,5.46,1.34,2.84,4.46,4.98,7.57,5.06,3.04.09,8.27-1.41,12.59-5.61.4-.38,1.01-.44,1.46-.12.46.31.63.9.41,1.41-15.07,32.52-21.07,44.24-21.07,44.24H.71s15.23-18.26,24.9-40.71c-2.27,1.72-7.07,4.36-11.14,4.2-2.08-.08-3.71-.49-5.07-.87Z"/>
    </g>
    <g class="st15">
      <path class="st4" d="M78.82,46.14l1.37-2.65s1.41-6.73,5.61-6.18c4.7.28,2.43,6.33,2.22,8.74-.82,5.55,1.71,7.21,4.92,8.84,2.05.94,5.2.55,7.06-1.34l-.2-2.27s-2.43,4.35-5.68,2.47c-2.81-1.81-2.17-6.04-1.99-11.69.22-3.21-.86-6.1-6.09-6.34-4.11-.21-7.16,8.12-6.61,7.57"/>
      <path class="st5" d="M100.68,49.3c1.24,1.14,1.19,2.41.17,3.72s-2.62,2.04-3.88,1c-1.34-1.1-1.1-2.84-.08-4.15,1.03-1.3,2.82-1.47,3.79-.57Z"/>
    </g>
    <g class="st14">
      <path class="st4" d="M98.3,5.29c-.09,2.2.9-5.75-5.24-4.89-7.95,2.07-11.67,13.17-14.05,22.83-2.33,12.77-3.24,16.11-6.99,27.44-2.54,5.8-4.99.26-4.99.26l-1.11,2.97s2.35,2.93,6.32.66c5.92-1.78,10.23-19.14,11.58-26.3,1.35-7.15,4.96-25.3,9.64-25.95,2.22-.49,2.35,3.1,2.35,3.1l1.51-.18"/>
      <path class="st5" d="M95.97,2.49c1.37-.07,2.42,1.32,2.35,3.1s-1.24,3.29-2.61,3.37-2.42-1.32-2.35-3.1c.07-1.79,1.24-3.29,2.61-3.37Z"/>
      <path class="st5" d="M95.97,2.49c1.37-.07,2.42,1.32,2.35,3.1s-1.24,3.29-2.61,3.37-2.42-1.32-2.35-3.1,1.24-3.29,2.61-3.37ZM95.94,3.08c-1.12.06-2.06,1.3-2.12,2.76-.06,1.46.79,2.6,1.9,2.54s2.06-1.3,2.12-2.76-.79-2.6-1.9-2.54Z"/>
      <path class="st5" d="M67.54,48.38c1.37-.07,2.42,1.3,2.35,3.07-.07,1.77-1.24,3.26-2.61,3.33s-2.42-1.3-2.35-3.07c.07-1.77,1.24-3.26,2.61-3.33Z"/>
      <path class="st5" d="M67.54,48.38c1.37-.07,2.42,1.3,2.35,3.07s-1.24,3.26-2.61,3.33-2.42-1.3-2.35-3.07c.07-1.76,1.24-3.26,2.61-3.33h0ZM67.51,48.96c-1.11.06-2.06,1.28-2.11,2.72s.79,2.57,1.91,2.51,2.06-1.28,2.11-2.72-.79-2.57-1.91-2.51h0Z"/>
    </g>
    <g id="_レイヤー-17" data-name="レイヤー-1">
      <path class="st6" d="M84.04,35.98l9.92-9.84c.46-.44,1.25.02,1.77.71.37.49.85,1.53.48,2.08l-8.63,8.02c-.53.52-4.47.16-3.94-.36"/>
    </g>
    <path class="st7" d="M196.96,57.87l7.07-27.96h-2.93s.33-1.59.33-1.59l8.72-1.1s-1.13,2.84-2.04,5.99c-.8,2.78-1.1,6.15-1.1,6.15-.05.39.28.41.5.06,2.65-4.28,3.83-6.38,5.5-8.11.81-.84,2.25-2.1,3.84-2.9,1.78-.9,3.72-1.09,4.58-.55,1.15.73,1.22,1.98,1.22,1.98l-1.34,4.7c-1.14-2.45-3.62-2.46-5.01-2.08-1.67.45-3.41,2.3-5.14,4.57-1.32,1.74-2.75,3.91-3.79,6.03-.77,1.58-1.5,2.33-2.22,4.11,0,0-1.08,2.96-1.4,4.24-1.44,5.75-1.26,5.5-1.22,6.46h-5.56Z"/>
    <path class="st7" d="M232.98,16.68c.83,0,1.54.29,2.11.87s.86,1.28.86,2.1-.29,1.51-.86,2.07c-.57.57-1.28.85-2.11.85s-1.51-.28-2.09-.85c-.57-.57-.86-1.26-.86-2.07s.29-1.54.86-2.11,1.27-.86,2.09-.86Z"/>
    <path class="st7" d="M222.18,57.87l7.07-27.96h-2.93s.33-1.59.33-1.59l8.72-1.1s-1.13,2.84-2.04,5.99c-.8,2.78-4.46,17.98-4.7,19.23-.61,3.22-.67,4.47-.89,5.44h-5.56Z"/>
    <path class="st7" d="M235.92,57.87l7.07-27.96h-2.93s.33-1.59.33-1.59l8.72-1.1s-1.13,2.84-2.04,5.99c-.8,2.78-1.1,6.15-1.1,6.15-.05.39.28.41.5.06,2.65-4.28,3.83-6.38,5.5-8.11.81-.84,2.25-2.1,3.84-2.9,1.78-.9,3.72-1.09,4.58-.55,1.15.73,1.22,1.98,1.22,1.98l-1.34,4.7c-1.14-2.45-3.62-2.46-5.01-2.08-1.67.45-3.41,2.3-5.14,4.57-1.32,1.74-2.75,3.91-3.79,6.03-.77,1.58-1.5,2.33-2.22,4.11,0,0-1.08,2.96-1.4,4.24-1.44,5.75-1.26,5.5-1.22,6.46h-5.56Z"/>
    <path class="st7" d="M272.07,16.68c.83,0,1.54.29,2.11.87s.86,1.28.86,2.1-.29,1.51-.86,2.07c-.57.57-1.28.85-2.11.85s-1.51-.28-2.09-.85c-.57-.57-.86-1.26-.86-2.07s.29-1.54.86-2.11,1.27-.86,2.09-.86Z"/>
    <path class="st7" d="M261.28,57.87l7.07-27.96h-2.93s.33-1.59.33-1.59l8.72-1.1s-1.13,2.84-2.04,5.99c-.8,2.78-4.46,17.98-4.7,19.23-.61,3.22-.67,4.47-.89,5.44h-5.56Z"/>
    <g id="_レイヤー-18" data-name="レイヤー-1">
      <path class="st6" d="M132.9,54.22v-19.19c0-.25.36-.81.79-.81s.79.43.79.68v20.87c0,1.3-1.59,1.26-1.59.03"/>
    </g>
    <g class="st17">
      <path class="st5" d="M61.62,54.66l.21-1.58s-1.29-.05-2.37.08c.73-5.57,3.81-18.15,5.11-23.97-3.67.12-3.54.09-6.24.17.07,4.24-6.05,17.74-9.47,20.32-1.11.58-3.2,3.27-5.92,1.48-3.52-2.32-1.31-7.1-.69-9.3,1.41-4.97,4.01-10.35,1.99-12.37-.93-.93-2.37-1.5-4.24-.75-2.17,1.63-5.38,4.57-5.02,6.5.56.1.42-.58,1.88-1.65.79-.58,1.79.26,1.59,1.36-.83,4.63-4.18,12.52-2.38,16.82.12.28.58,1.32,1.46,2.08.67.58,1.56,1.34,5,1.37,6.72.06,11.15-10.19,12.5-10.21-.07,2.5-.87,7.82-1.73,10.6,2.59-.27,8.31-.95,8.31-.95Z"/>
    </g>
    <path class="st7" d="M278.87,15.63c-1.15-1.28-21.14-12.25-56.67-11.99-35.03.25-51.29,5.52-57.03,10.47-.9.78-1.26,1.5-1.73,1.05s-.25-.65.03-1.1c3.01-4.8,29.18-12.4,58.74-12.4,26.48,0,48.61,8.11,54.93,11.65,1.99,1.12,4.15,2.91,3.69,3.28-.5.4-1.74-.73-1.95-.97Z"/>
    <path class="st7" d="M158,57.87l7.07-27.96h-2.93s.33-1.59.33-1.59l8.72-1.1s-1.13,2.84-2.04,5.99c-.8,2.78-1.1,6.15-1.1,6.15-.05.39.28.41.5.06,2.65-4.28,3.83-6.38,5.5-8.11.81-.84,2.25-2.1,3.84-2.9,1.78-.9,3.72-1.09,4.58-.55,1.15.73,1.22,1.98,1.22,1.98l-1.34,4.7c-1.14-2.45-3.62-2.46-5.01-2.08-1.67.45-3.41,2.3-5.14,4.57-1.32,1.74-2.75,3.91-3.79,6.03-.77,1.58-1.5,2.33-2.22,4.11,0,0-1.08,2.96-1.4,4.24-1.44,5.75-1.26,5.5-1.22,6.46h-5.56Z"/>
    <path class="st7" d="M194.02,16.68c.83,0,1.54.29,2.11.87s.86,1.28.86,2.1-.29,1.51-.86,2.07c-.57.57-1.28.85-2.11.85s-1.51-.28-2.09-.85c-.57-.57-.86-1.26-.86-2.07s.29-1.54.86-2.11,1.27-.86,2.09-.86Z"/>
    <rect class="st21" x="141.07" y="38.82" width="12.64" height="3.78"/>
    <rect class="st21" x="138.23" y="37.65" width="18.27" height="1.52"/>
    <path class="st7" d="M183.22,57.87l7.07-27.96h-2.93s.33-1.59.33-1.59l8.72-1.1s-1.13,2.84-2.04,5.99c-.8,2.78-4.46,17.98-4.7,19.23-.61,3.22-.67,4.47-.89,5.44h-5.56Z"/>
    <g id="whole_note13" data-name="whole_note1">
      <path class="st5" d="M106.65,53.32c-3.82-4.08-2.66-12.98,2.58-17.9,6.25-5.87,14.45-5.27,18.28-1.2,4.42,4.72,3.1,12.73-1.89,17.43-5.49,5.16-14.19,6.75-18.96,1.67ZM108.52,52.05c2.51,2.45,10.26-1.19,13.19-4.06,2.96-2.78,7.47-9.57,4.59-12.64-2.24-2.39-9.3.39-13.26,4.12-3.83,3.58-6.59,10.5-4.52,12.58h0Z"/>
    </g>
    <g id="_レイヤー-19" data-name="レイヤー-1">
      <path class="st6" d="M127.55,54.22v-19.19c0-.25.65-.81,1.45-.81s1.45.43,1.45.68v20.87c0,1.3-2.91,1.26-2.91.03"/>
    </g>
    <g id="eighth_rest13" data-name="eighth_rest1">
      <path class="st5" d="M9.39,43.12c-2.58-.73-5.91-3.29-7.47-6.04s-2.6-7.41-1.42-12.16c1.12-4.5,4.91-7.72,9.08-7.72,4.9,0,7.12,2.98,7.19,7.09.06,3.87-4.33,8.61-10.22,5.78-.12.87.13,3.48,1.07,5.46,1.34,2.84,4.46,4.98,7.57,5.06,3.04.09,8.27-1.41,12.59-5.61.4-.38,1.01-.44,1.46-.12.46.31.63.9.41,1.41-15.07,32.52-21.07,44.24-21.07,44.24H.71s15.23-18.26,24.9-40.71c-2.27,1.72-7.07,4.36-11.14,4.2-2.08-.08-3.71-.49-5.07-.87Z"/>
    </g>
    <g class="st16">
      <path class="st4" d="M78.82,46.14l1.37-2.65s1.41-6.73,5.61-6.18c4.7.28,2.43,6.33,2.22,8.74-.82,5.55,1.71,7.21,4.92,8.84,2.05.94,5.2.55,7.06-1.34l-.2-2.27s-2.43,4.35-5.68,2.47c-2.81-1.81-2.17-6.04-1.99-11.69.22-3.21-.86-6.1-6.09-6.34-4.11-.21-7.16,8.12-6.61,7.57"/>
      <path class="st5" d="M100.68,49.3c1.24,1.14,1.19,2.41.17,3.72s-2.62,2.04-3.88,1c-1.34-1.1-1.1-2.84-.08-4.15,1.03-1.3,2.82-1.47,3.79-.57Z"/>
    </g>
    <g class="st9">
      <path class="st4" d="M98.3,5.29c-.09,2.2.9-5.75-5.24-4.89-7.95,2.07-11.67,13.17-14.05,22.83-2.33,12.77-3.24,16.11-6.99,27.44-2.54,5.8-4.99.26-4.99.26l-1.11,2.97s2.35,2.93,6.32.66c5.92-1.78,10.23-19.14,11.58-26.3,1.35-7.15,4.96-25.3,9.64-25.95,2.22-.49,2.35,3.1,2.35,3.1l1.51-.18"/>
      <path class="st5" d="M95.97,2.49c1.37-.07,2.42,1.32,2.35,3.1s-1.24,3.29-2.61,3.37-2.42-1.32-2.35-3.1c.07-1.79,1.24-3.29,2.61-3.37Z"/>
      <path class="st5" d="M95.97,2.49c1.37-.07,2.42,1.32,2.35,3.1s-1.24,3.29-2.61,3.37-2.42-1.32-2.35-3.1,1.24-3.29,2.61-3.37ZM95.94,3.08c-1.12.06-2.06,1.3-2.12,2.76-.06,1.46.79,2.6,1.9,2.54s2.06-1.3,2.12-2.76-.79-2.6-1.9-2.54Z"/>
      <path class="st5" d="M67.54,48.38c1.37-.07,2.42,1.3,2.35,3.07-.07,1.77-1.24,3.26-2.61,3.33s-2.42-1.3-2.35-3.07c.07-1.77,1.24-3.26,2.61-3.33Z"/>
      <path class="st5" d="M67.54,48.38c1.37-.07,2.42,1.3,2.35,3.07s-1.24,3.26-2.61,3.33-2.42-1.3-2.35-3.07c.07-1.76,1.24-3.26,2.61-3.33h0ZM67.51,48.96c-1.11.06-2.06,1.28-2.11,2.72s.79,2.57,1.91,2.51,2.06-1.28,2.11-2.72-.79-2.57-1.91-2.51h0Z"/>
    </g>
    <g id="_レイヤー-110" data-name="レイヤー-1">
      <path class="st6" d="M84.04,35.98l9.92-9.84c.46-.44,1.25.02,1.77.71.37.49.85,1.53.48,2.08l-8.63,8.02c-.53.52-4.47.16-3.94-.36"/>
    </g>
    <path class="st7" d="M196.96,57.87l7.07-27.96h-2.93s.33-1.59.33-1.59l8.72-1.1s-1.13,2.84-2.04,5.99c-.8,2.78-1.1,6.15-1.1,6.15-.05.39.28.41.5.06,2.65-4.28,3.83-6.38,5.5-8.11.81-.84,2.25-2.1,3.84-2.9,1.78-.9,3.72-1.09,4.58-.55,1.15.73,1.22,1.98,1.22,1.98l-1.34,4.7c-1.14-2.45-3.62-2.46-5.01-2.08-1.67.45-3.41,2.3-5.14,4.57-1.32,1.74-2.75,3.91-3.79,6.03-.77,1.58-1.5,2.33-2.22,4.11,0,0-1.08,2.96-1.4,4.24-1.44,5.75-1.26,5.5-1.22,6.46h-5.56Z"/>
    <path class="st7" d="M232.98,16.68c.83,0,1.54.29,2.11.87s.86,1.28.86,2.1-.29,1.51-.86,2.07c-.57.57-1.28.85-2.11.85s-1.51-.28-2.09-.85c-.57-.57-.86-1.26-.86-2.07s.29-1.54.86-2.11,1.27-.86,2.09-.86Z"/>
    <path class="st7" d="M222.18,57.87l7.07-27.96h-2.93s.33-1.59.33-1.59l8.72-1.1s-1.13,2.84-2.04,5.99c-.8,2.78-4.46,17.98-4.7,19.23-.61,3.22-.67,4.47-.89,5.44h-5.56Z"/>
    <path class="st7" d="M235.92,57.87l7.07-27.96h-2.93s.33-1.59.33-1.59l8.72-1.1s-1.13,2.84-2.04,5.99c-.8,2.78-1.1,6.15-1.1,6.15-.05.39.28.41.5.06,2.65-4.28,3.83-6.38,5.5-8.11.81-.84,2.25-2.1,3.84-2.9,1.78-.9,3.72-1.09,4.58-.55,1.15.73,1.22,1.98,1.22,1.98l-1.34,4.7c-1.14-2.45-3.62-2.46-5.01-2.08-1.67.45-3.41,2.3-5.14,4.57-1.32,1.74-2.75,3.91-3.79,6.03-.77,1.58-1.5,2.33-2.22,4.11,0,0-1.08,2.96-1.4,4.24-1.44,5.75-1.26,5.5-1.22,6.46h-5.56Z"/>
    <path class="st7" d="M272.07,16.68c.83,0,1.54.29,2.11.87s.86,1.28.86,2.1-.29,1.51-.86,2.07c-.57.57-1.28.85-2.11.85s-1.51-.28-2.09-.85c-.57-.57-.86-1.26-.86-2.07s.29-1.54.86-2.11,1.27-.86,2.09-.86Z"/>
    <path class="st7" d="M261.28,57.87l7.07-27.96h-2.93s.33-1.59.33-1.59l8.72-1.1s-1.13,2.84-2.04,5.99c-.8,2.78-4.46,17.98-4.7,19.23-.61,3.22-.67,4.47-.89,5.44h-5.56Z"/>
    <g id="_レイヤー-111" data-name="レイヤー-1">
      <path class="st6" d="M132.9,54.22v-19.19c0-.25.36-.81.79-.81s.79.43.79.68v20.87c0,1.3-1.59,1.26-1.59.03"/>
    </g>
    <g class="st8">
      <path class="st5" d="M61.62,54.66l.21-1.58s-1.29-.05-2.37.08c.73-5.57,3.81-18.15,5.11-23.97-3.67.12-3.54.09-6.24.17.07,4.24-6.05,17.74-9.47,20.32-1.11.58-3.2,3.27-5.92,1.48-3.52-2.32-1.31-7.1-.69-9.3,1.41-4.97,4.01-10.35,1.99-12.37-.93-.93-2.37-1.5-4.24-.75-2.17,1.63-5.38,4.57-5.02,6.5.56.1.42-.58,1.88-1.65.79-.58,1.79.26,1.59,1.36-.83,4.63-4.18,12.52-2.38,16.82.12.28.58,1.32,1.46,2.08.67.58,1.56,1.34,5,1.37,6.72.06,11.15-10.19,12.5-10.21-.07,2.5-.87,7.82-1.73,10.6,2.59-.27,8.31-.95,8.31-.95Z"/>
    </g>
    <path class="st7" d="M278.87,15.63c-1.15-1.28-21.14-12.25-56.67-11.99-35.03.25-51.29,5.52-57.03,10.47-.9.78-1.26,1.5-1.73,1.05s-.25-.65.03-1.1c3.01-4.8,29.18-12.4,58.74-12.4,26.48,0,48.61,8.11,54.93,11.65,1.99,1.12,4.15,2.91,3.69,3.28-.5.4-1.74-.73-1.95-.97Z"/>
  </g>
  <g id="_レイヤー_2" data-name="レイヤー_2">
    <path class="st2" d="M278.87,15.63c-1.15-1.28-21.14-12.25-56.67-11.99-35.03.25-51.29,5.52-57.03,10.47-.9.78-1.26,1.5-1.73,1.05s-.25-.65.03-1.1c3.01-4.8,29.18-12.4,58.74-12.4,26.48,0,48.61,8.11,54.93,11.65,1.99,1.12,4.15,2.91,3.69,3.28-.5.4-1.74-.73-1.95-.97Z"/>
    <path class="st2" d="M261.28,57.87l7.07-27.96h-2.93s.33-1.59.33-1.59l8.72-1.1s-1.13,2.84-2.04,5.99c-.8,2.78-4.46,17.98-4.7,19.23-.61,3.22-.67,4.47-.89,5.44h-5.56Z"/>
    <path class="st2" d="M272.07,16.68c.83,0,1.54.29,2.11.87s.86,1.28.86,2.1-.29,1.51-.86,2.07c-.57.57-1.28.85-2.11.85s-1.51-.28-2.09-.85c-.57-.57-.86-1.26-.86-2.07s.29-1.54.86-2.11,1.27-.86,2.09-.86Z"/>
    <path class="st2" d="M235.92,57.87l7.07-27.96h-2.93s.33-1.59.33-1.59l8.72-1.1s-1.13,2.84-2.04,5.99c-.8,2.78-1.1,6.15-1.1,6.15-.05.39.28.41.5.06,2.65-4.28,3.83-6.38,5.5-8.11.81-.84,2.25-2.1,3.84-2.9,1.78-.9,3.72-1.09,4.58-.55,1.15.73,1.22,1.98,1.22,1.98l-1.34,4.7c-1.14-2.45-3.62-2.46-5.01-2.08-1.67.45-3.41,2.3-5.14,4.57-1.32,1.74-2.75,3.91-3.79,6.03-.77,1.58-1.5,2.33-2.22,4.11,0,0-1.08,2.96-1.4,4.24-1.44,5.75-1.26,5.5-1.22,6.46h-5.56Z"/>
    <path class="st2" d="M222.18,57.87l7.07-27.96h-2.93s.33-1.59.33-1.59l8.72-1.1s-1.13,2.84-2.04,5.99c-.8,2.78-4.46,17.98-4.7,19.23-.61,3.22-.67,4.47-.89,5.44h-5.56Z"/>
    <path class="st2" d="M232.98,16.68c.83,0,1.54.29,2.11.87s.86,1.28.86,2.1-.29,1.51-.86,2.07c-.57.57-1.28.85-2.11.85s-1.51-.28-2.09-.85c-.57-.57-.86-1.26-.86-2.07s.29-1.54.86-2.11,1.27-.86,2.09-.86Z"/>
    <path class="st2" d="M196.96,57.87l7.07-27.96h-2.93s.33-1.59.33-1.59l8.72-1.1s-1.13,2.84-2.04,5.99c-.8,2.78-1.1,6.15-1.1,6.15-.05.39.28.41.5.06,2.65-4.28,3.83-6.38,5.5-8.11.81-.84,2.25-2.1,3.84-2.9,1.78-.9,3.72-1.09,4.58-.55,1.15.73,1.22,1.98,1.22,1.98l-1.34,4.7c-1.14-2.45-3.62-2.46-5.01-2.08-1.67.45-3.41,2.3-5.14,4.57-1.32,1.74-2.75,3.91-3.79,6.03-.77,1.58-1.5,2.33-2.22,4.11,0,0-1.08,2.96-1.4,4.24-1.44,5.75-1.26,5.5-1.22,6.46h-5.56Z"/>
    <path class="st2" d="M183.22,57.87l7.07-27.96h-2.93s.33-1.59.33-1.59l8.72-1.1s-1.13,2.84-2.04,5.99c-.8,2.78-4.46,17.98-4.7,19.23-.61,3.22-.67,4.47-.89,5.44h-5.56Z"/>
    <path class="st2" d="M194.02,16.68c.83,0,1.54.29,2.11.87s.86,1.28.86,2.1-.29,1.51-.86,2.07c-.57.57-1.28.85-2.11.85s-1.51-.28-2.09-.85c-.57-.57-.86-1.26-.86-2.07s.29-1.54.86-2.11,1.27-.86,2.09-.86Z"/>
    <path class="st2" d="M158,57.87l7.07-27.96h-2.93s.33-1.59.33-1.59l8.72-1.1s-1.13,2.84-2.04,5.99c-.8,2.78-1.1,6.15-1.1,6.15-.05.39.28.41.5.06,2.65-4.28,3.83-6.38,5.5-8.11.81-.84,2.25-2.1,3.84-2.9,1.78-.9,3.72-1.09,4.58-.55,1.15.73,1.22,1.98,1.22,1.98l-1.34,4.7c-1.14-2.45-3.62-2.46-5.01-2.08-1.67.45-3.41,2.3-5.14,4.57-1.32,1.74-2.75,3.91-3.79,6.03-.77,1.58-1.5,2.33-2.22,4.11,0,0-1.08,2.96-1.4,4.24-1.44,5.75-1.26,5.5-1.22,6.46h-5.56Z"/>
    <rect class="st2" x="141.07" y="38.82" width="12.64" height="3.78"/>
    <rect class="st2" x="138.23" y="37.65" width="18.27" height="1.52"/>
    <g id="_レイヤー-112" data-name="レイヤー-1">
      <path class="st2" d="M127.55,54.22v-19.19c0-.25.65-.81,1.45-.81s1.45.43,1.45.68v20.87c0,1.3-2.91,1.26-2.91.03"/>
    </g>
    <g id="_レイヤー-113" data-name="レイヤー-1">
      <path class="st2" d="M132.9,54.22v-19.19c0-.25.36-.81.79-.81s.79.43.79.68v20.87c0,1.3-1.59,1.26-1.59.03"/>
    </g>
    <g id="whole_note14" data-name="whole_note1">
      <path class="st3" d="M106.65,53.32c-3.82-4.08-2.66-12.98,2.58-17.9,6.25-5.87,14.45-5.27,18.28-1.2,4.42,4.72,3.1,12.73-1.89,17.43-5.49,5.16-14.19,6.75-18.96,1.67ZM108.52,52.05c2.51,2.45,10.26-1.19,13.19-4.06,2.96-2.78,7.47-9.57,4.59-12.64-2.24-2.39-9.3.39-13.26,4.12-3.83,3.58-6.59,10.5-4.52,12.58h0Z"/>
    </g>
    <g>
      <path class="st1" d="M78.82,46.14l1.37-2.65s1.41-6.73,5.61-6.18c4.7.28,2.43,6.33,2.22,8.74-.82,5.55,1.71,7.21,4.92,8.84,2.05.94,5.2.55,7.06-1.34l-.2-2.27s-2.43,4.35-5.68,2.47c-2.81-1.81-2.17-6.04-1.99-11.69.22-3.21-.86-6.1-6.09-6.34-4.11-.21-7.16,8.12-6.61,7.57"/>
      <path class="st3" d="M100.68,49.3c1.24,1.14,1.19,2.41.17,3.72s-2.62,2.04-3.88,1c-1.34-1.1-1.1-2.84-.08-4.15,1.03-1.3,2.82-1.47,3.79-.57Z"/>
    </g>
    <g>
      <path class="st1" d="M98.3,5.29c-.09,2.2.9-5.75-5.24-4.89-7.95,2.07-11.67,13.17-14.05,22.83-2.33,12.77-3.24,16.11-6.99,27.44-2.54,5.8-4.99.26-4.99.26l-1.11,2.97s2.35,2.93,6.32.66c5.92-1.78,10.23-19.14,11.58-26.3,1.35-7.15,4.96-25.3,9.64-25.95,2.22-.49,2.35,3.1,2.35,3.1l1.51-.18"/>
      <path class="st3" d="M95.97,2.49c1.37-.07,2.42,1.32,2.35,3.1s-1.24,3.29-2.61,3.37-2.42-1.32-2.35-3.1c.07-1.79,1.24-3.29,2.61-3.37Z"/>
      <path class="st3" d="M95.97,2.49c1.37-.07,2.42,1.32,2.35,3.1s-1.24,3.29-2.61,3.37-2.42-1.32-2.35-3.1,1.24-3.29,2.61-3.37ZM95.94,3.08c-1.12.06-2.06,1.3-2.12,2.76-.06,1.46.79,2.6,1.9,2.54s2.06-1.3,2.12-2.76-.79-2.6-1.9-2.54Z"/>
      <path class="st3" d="M67.54,48.38c1.37-.07,2.42,1.3,2.35,3.07-.07,1.77-1.24,3.26-2.61,3.33s-2.42-1.3-2.35-3.07c.07-1.77,1.24-3.26,2.61-3.33Z"/>
      <path class="st3" d="M67.54,48.38c1.37-.07,2.42,1.3,2.35,3.07s-1.24,3.26-2.61,3.33-2.42-1.3-2.35-3.07c.07-1.76,1.24-3.26,2.61-3.33h0ZM67.51,48.96c-1.11.06-2.06,1.28-2.11,2.72s.79,2.57,1.91,2.51,2.06-1.28,2.11-2.72-.79-2.57-1.91-2.51h0Z"/>
    </g>
    <g id="_レイヤー-114" data-name="レイヤー-1">
      <path class="st2" d="M84.04,35.98l9.92-9.84c.46-.44,1.25.02,1.77.71.37.49.85,1.53.48,2.08l-8.63,8.02c-.53.52-4.47.16-3.94-.36"/>
    </g>
    <path class="st3" d="M61.62,54.66l.21-1.58s-1.29-.05-2.37.08c.73-5.57,3.81-18.15,5.11-23.97-3.67.12-3.54.09-6.24.17.07,4.24-6.05,17.74-9.47,20.32-1.11.58-3.2,3.27-5.92,1.48-3.52-2.32-1.31-7.1-.69-9.3,1.41-4.97,4.01-10.35,1.99-12.37-.93-.93-2.37-1.5-4.24-.75-2.17,1.63-5.38,4.57-5.02,6.5.56.1.42-.58,1.88-1.65.79-.58,1.79.26,1.59,1.36-.83,4.63-4.18,12.52-2.38,16.82.12.28.58,1.32,1.46,2.08.67.58,1.56,1.34,5,1.37,6.72.06,11.15-10.19,12.5-10.21-.07,2.5-.87,7.82-1.73,10.6,2.59-.27,8.31-.95,8.31-.95Z"/>
    <g id="eighth_rest14" data-name="eighth_rest1">
      <path class="st3" d="M10.39,43.12c-2.58-.73-5.91-3.29-7.47-6.04s-2.6-7.41-1.42-12.16c1.12-4.5,4.91-7.72,9.08-7.72,4.9,0,7.12,2.98,7.19,7.09.06,3.87-4.33,8.61-10.22,5.78-.12.87.13,3.48,1.07,5.46,1.34,2.84,4.46,4.98,7.57,5.06,3.04.09,8.27-1.41,12.59-5.61.4-.38,1.01-.44,1.46-.12.46.31.63.9.41,1.41-15.07,32.52-21.07,44.24-21.07,44.24H1.71s15.23-18.26,24.9-40.71c-2.27,1.72-7.07,4.36-11.14,4.2-2.08-.08-3.71-.49-5.07-.87Z"/>
    </g>
  </g>
</svg>